<svg width="23" height="23" viewBox="0 0 23 23" fill="none" xmlns="http://www.w3.org/2000/svg">
<path d="M11.5 22.5C17.575 22.5 22.5 17.575 22.5 11.5C22.5 5.425 17.575 0.5 11.5 0.5C5.425 0.5 0.5 5.425 0.5 11.5C0.5 17.575 5.425 22.5 11.5 22.5Z" fill="#66E1FF"/>
<path d="M3.72201 19.279C1.65902 17.216 0.500046 14.418 0.500046 11.5005C0.500046 8.58296 1.65902 5.78495 3.72201 3.72196C5.78499 1.65897 8.583 0.5 11.5005 0.5C14.418 0.5 17.216 1.65897 19.279 3.72196L3.72201 19.279Z" fill="#C2F3FF"/>
<path d="M11.5 22.5C17.575 22.5 22.5 17.575 22.5 11.5C22.5 5.425 17.575 0.5 11.5 0.5C5.425 0.5 0.5 5.425 0.5 11.5C0.5 17.575 5.425 22.5 11.5 22.5Z" stroke="#191919" stroke-linecap="round" stroke-linejoin="round"/>
<path d="M14.339 13.07C14.2435 13.301 14.1034 13.5109 13.9266 13.6877C13.7499 13.8644 13.54 14.0046 13.309 14.1L6.92 16.761C6.83437 16.7962 6.74041 16.8057 6.64946 16.7886C6.55851 16.7715 6.47447 16.7283 6.40751 16.6644C6.34055 16.6006 6.29354 16.5186 6.27215 16.4286C6.25076 16.3385 6.25592 16.2442 6.287 16.157L8.658 9.57205C8.75266 9.30777 8.90471 9.06776 9.10321 8.86926C9.30171 8.67076 9.54172 8.51871 9.806 8.42405L16.396 6.04805C16.4832 6.01649 16.5777 6.01099 16.668 6.03221C16.7583 6.05343 16.8404 6.10045 16.9045 6.16755C16.9685 6.23465 17.0116 6.31892 17.0286 6.4101C17.0455 6.50127 17.0356 6.59541 17 6.68105L14.339 13.07Z" fill="#FFEF5E"/>
<path d="M6.407 16.665C6.33993 16.6008 6.2929 16.5186 6.2716 16.4283C6.2503 16.3379 6.25565 16.2433 6.287 16.156L8.659 9.57199C8.75366 9.30771 8.90571 9.06769 9.10421 8.8692C9.30271 8.6707 9.54272 8.51865 9.807 8.42399L16.397 6.04799C16.4844 6.01664 16.5789 6.01129 16.6693 6.03258C16.7596 6.05388 16.8418 6.10091 16.906 6.16799L6.407 16.665Z" fill="#FFF9BF"/>
<path d="M14.339 13.07C14.2435 13.301 14.1034 13.5109 13.9266 13.6877C13.7499 13.8644 13.54 14.0046 13.309 14.1L6.92 16.761C6.83437 16.7962 6.74041 16.8057 6.64946 16.7886C6.55851 16.7715 6.47447 16.7283 6.40751 16.6644C6.34055 16.6006 6.29354 16.5186 6.27215 16.4286C6.25076 16.3385 6.25592 16.2442 6.287 16.157L8.658 9.57205C8.75266 9.30777 8.90471 9.06776 9.10321 8.86926C9.30171 8.67076 9.54172 8.51871 9.806 8.42405L16.396 6.04805C16.4832 6.01649 16.5777 6.01099 16.668 6.03221C16.7583 6.05343 16.8404 6.10045 16.9045 6.16755C16.9685 6.23465 17.0116 6.31892 17.0286 6.4101C17.0455 6.50127 17.0356 6.59541 17 6.68105L14.339 13.07Z" stroke="#191919" stroke-linecap="round" stroke-linejoin="round"/>
<path d="M11.5 12.9349C11.8805 12.9349 12.2453 12.7838 12.5143 12.5148C12.7834 12.2457 12.9345 11.8809 12.9345 11.5004C12.9345 11.12 12.7834 10.7551 12.5143 10.4861C12.2453 10.2171 11.8805 10.0659 11.5 10.0659C11.1196 10.0659 10.7547 10.2171 10.4857 10.4861C10.2166 10.7551 10.0655 11.12 10.0655 11.5004C10.0655 11.8809 10.2166 12.2457 10.4857 12.5148C10.7547 12.7838 11.1196 12.9349 11.5 12.9349Z" fill="#808080" stroke="#191919" stroke-linecap="round" stroke-linejoin="round"/>
<path d="M11.5 2.41309V3.37009M20.586 11.5001H19.63M17.926 17.9261L17.249 17.2491M11.5 20.5871V19.6311M2.41299 11.5001H3.36999M5.07399 5.07409L5.75099 5.75209" stroke="#191919" stroke-linecap="round" stroke-linejoin="round"/>
</svg>
